<?xml version="1.0" encoding="UTF-8" standalone="no"?>
<!-- Created with Inkscape (http://www.inkscape.org/) -->

<svg
   width="50mm"
   height="50mm"
   viewBox="0 0 50 50"
   version="1.1"
   id="svg5"
   inkscape:export-filename="logo.png"
   inkscape:export-xdpi="96"
   inkscape:export-ydpi="96"
   inkscape:version="1.2.2 (b0a8486541, 2022-12-01)"
   sodipodi:docname="logo.svg"
   xmlns:inkscape="http://www.inkscape.org/namespaces/inkscape"
   xmlns:sodipodi="http://sodipodi.sourceforge.net/DTD/sodipodi-0.dtd"
   xmlns:xlink="http://www.w3.org/1999/xlink"
   xmlns="http://www.w3.org/2000/svg"
   xmlns:svg="http://www.w3.org/2000/svg">
  <sodipodi:namedview
     id="namedview7"
     pagecolor="#ffffff"
     bordercolor="#000000"
     borderopacity="0.25"
     inkscape:showpageshadow="2"
     inkscape:pageopacity="0.0"
     inkscape:pagecheckerboard="0"
     inkscape:deskcolor="#d1d1d1"
     inkscape:document-units="mm"
     showgrid="false"
     inkscape:zoom="2.1946698"
     inkscape:cx="-4.1008447"
     inkscape:cy="71.309133"
     inkscape:window-width="1912"
     inkscape:window-height="1032"
     inkscape:window-x="4"
     inkscape:window-y="44"
     inkscape:window-maximized="1"
     inkscape:current-layer="text236" />
  <defs
     id="defs2">
    <linearGradient
       inkscape:collect="always"
       id="linearGradient981">
      <stop
         style="stop-color:#e9f259;stop-opacity:1;"
         offset="0"
         id="stop977" />
      <stop
         style="stop-color:#89aee1;stop-opacity:1;"
         offset="1"
         id="stop979" />
    </linearGradient>
    <linearGradient
       inkscape:collect="always"
       xlink:href="#linearGradient981"
       id="linearGradient983"
       x1="-1.9100951"
       y1="13.8079"
       x2="51.449961"
       y2="13.8079"
       gradientUnits="userSpaceOnUse"
       gradientTransform="matrix(0.6761749,0,0,0.6761749,8.2834315,20.232103)" />
  </defs>
  <g
     inkscape:label="Layer 1"
     inkscape:groupmode="layer"
     id="layer1">
    <rect
       style="fill:#7cf4d3;fill-opacity:1;stroke:none;stroke-width:1;stroke-linecap:round;stroke-linejoin:round;paint-order:fill markers stroke;stroke-opacity:1"
       id="rect1037"
       width="50"
       height="50"
       x="0"
       y="0" />
    <g
       aria-label="S.D"
       id="text236"
       style="font-size:26.5632px;font-family:'Noto Sans';-inkscape-font-specification:'Noto Sans';fill:url(#linearGradient983);stroke:#000000;stroke-width:0.676175;stroke-linecap:round;stroke-linejoin:round;paint-order:fill markers stroke">
      <path
         d="m 6.893444,22.635457 q 0.077822,-0.38911 0.1037625,-0.622575 0.025941,-0.259406 -0.1815844,-0.544753 0.1037625,-0.41505 0.1556437,-0.648516 0.077822,-0.233466 0.025941,-0.648516 0.2334656,-0.674456 0.7003968,-1.141387 0.4928719,-0.466931 1.0635657,-0.778219 0.5706937,-0.337228 1.1932687,-0.544753 0.6225753,-0.233466 1.1673283,-0.389109 0,-0.103763 -0.103763,-0.103763 -0.103762,0 -0.05188,-0.129703 1.400794,-0.259406 2.801588,-0.752278 1.426734,-0.492872 2.90535,-0.881981 1.478615,-0.38911 3.035053,-0.466932 1.556437,-0.103762 3.268518,0.38911 0.103763,0.311287 0.285347,0.596634 0.181585,0.285347 0.363169,0.570694 0.207525,0.259406 0.363169,0.518812 0.155644,0.259407 0.181584,0.544754 0.311288,0.285346 0.492872,0.622575 0.207525,0.311287 0.07782,0.85604 -0.285347,0.207525 -0.596634,0.41505 -0.311288,0.207525 -0.648516,0.38911 -1.167328,-0.285347 -2.334656,-0.207525 -1.167328,0.07782 -2.101191,0.181584 -0.285347,-0.311288 -0.674456,-0.285347 -0.38911,0 -0.8301,0.129703 -0.41505,0.103763 -0.8301,0.233466 -0.41505,0.103762 -0.778219,0.05188 -0.285347,0.259406 -0.752278,0.363169 -0.466931,0.07782 -0.985744,0.129703 -0.02594,0.129703 0.05188,0.181584 0.07782,0.05188 0.02594,0.207525 0.181584,0.233466 0.492872,0.337228 0.311287,0.07782 0.622575,0.155644 0.337228,0.07782 0.596634,0.233466 0.259407,0.129703 0.337228,0.44099 0.466932,0.02594 0.80416,0.259407 0.337228,0.207525 0.570694,0.518812 0.233465,0.311288 0.337228,0.674456 0.103762,0.337229 0.07782,0.622575 0.103762,0.259407 0.207525,0.207525 0.129703,-0.05188 0.285346,0.129704 0.103763,0.389109 0.466932,0.8301 0.389109,0.41505 0.596634,0.907921 0.05188,0.778219 0.07782,1.400794 0.05188,0.622575 -0.207525,1.21921 -0.440991,1.141387 -1.271091,2.049309 -0.8301,0.907922 -1.893665,1.608319 -1.037625,0.674456 -2.204953,1.193268 -1.167329,0.492872 -2.308716,0.8301 -0.103763,-0.02594 -0.259406,0 -0.129703,0.02594 -0.05188,-0.155643 -0.233465,0.207525 -0.544753,0.259406 -0.285347,0.05188 -0.648515,0.02594 -0.337228,0 -0.7003972,-0.02594 -0.3372281,-0.02594 -0.6744562,0.02594 Q 8.7871096,34.412501 8.6055252,34.204976 8.4498815,33.997451 8.346119,33.712104 8.2164158,33.686163 8.2164158,33.55646 q 0.025941,-0.155644 -0.1037625,-0.155644 0,-0.103762 0.025941,-0.155644 0.025941,-0.05188 0.051881,-0.103762 0.1037625,-0.07782 0.077822,-0.103763 0,-0.05188 -0.077822,-0.07782 -0.051881,-0.05188 -0.1297031,-0.103763 -0.051881,-0.05188 -0.025941,-0.129703 0.1297031,-0.233466 0.077822,-0.544753 -0.025941,-0.337228 -0.051881,-0.674456 -0.025941,-0.337229 0.051881,-0.622575 0.077822,-0.311288 0.4409907,-0.518813 1.0635656,0.103763 1.997428,-0.103762 0.959803,-0.207525 1.789903,-0.570694 0.856041,-0.363169 1.608319,-0.778219 0.778219,-0.440991 1.504556,-0.804159 0.07782,-0.259407 0.233466,-0.440991 0.181584,-0.181584 0.363169,-0.337228 0.181584,-0.181584 0.337228,-0.363169 0.155643,-0.207525 0.233465,-0.492872 0.02594,-0.103762 0,-0.155643 -0.02594,-0.05188 -0.07782,-0.07782 -0.05188,-0.05188 -0.103762,-0.103763 -0.05188,-0.05188 -0.05188,-0.155644 -0.07782,-0.02594 -0.155644,-0.05188 -0.05188,-0.02594 -0.103763,-0.02594 -0.674456,-0.337229 -1.426734,-0.570694 -0.752278,-0.233466 -1.271091,-0.518813 -0.311287,0.207525 -0.622575,0.103763 Q 12.496619,24.814469 12.055628,24.710707 10.966122,24.658826 9.9803783,24.503182 9.0205752,24.347538 8.1126533,23.958429 8.0607721,23.802785 7.9829502,23.699022 7.9051283,23.569319 7.6197815,23.621201 7.4381971,23.361794 7.2306721,23.154269 7.0490877,22.920804 6.893444,22.635457 Z"
         style="font-family:'Permanent Marker';-inkscape-font-specification:'Permanent Marker';text-align:center;text-anchor:middle"
         id="path317" />
      <path
         d="m 25.648516,31.247744 q 0.05188,0.207525 0.07782,0.38911 0.02594,0.181584 0.07782,0.389109 -0.103763,0.259406 -0.181585,0.518813 -0.07782,0.233465 -0.155643,0.466931 -0.07782,0.181584 -0.103763,0.233465 -0.02594,0.05188 -0.02594,0.07782 0,0.02594 0,0.07782 0.02594,0.02594 0.02594,0.207525 l -0.103762,0.311288 q -0.129704,0.181584 -0.311288,0.285347 -0.181584,0.103762 -0.363169,0.181584 -0.05188,0.05188 -0.155643,0.07782 -0.103763,0.05188 -0.155644,0.103762 l -0.07782,0.311288 -0.337228,0.05188 q -0.440991,0.103763 -0.752278,0.103763 h -0.311288 q -0.311287,-0.285347 -0.492872,-0.440991 -0.181584,-0.155644 -0.389109,-0.285347 -0.259406,-0.363169 -0.285347,-0.518812 -0.02594,-0.181585 -0.07782,-0.337229 -0.05188,-0.337228 -0.129703,-0.44099 l -0.363169,-0.363169 0.311288,-0.233466 -0.285347,-0.492871 q 0.311287,-0.233466 0.466931,-0.337229 0.155644,-0.103762 0.259406,-0.207525 0.103763,-0.129703 0.233466,-0.311287 0.129703,-0.181584 0.41505,-0.596634 l 0.233466,-0.337229 0.337228,0.181585 q 0.103762,0.07782 0.44099,0.155644 0.363169,0.05188 0.622575,0.103762 0.440991,0.129703 0.8301,0.207525 0.38911,0.05188 0.622575,0.259406 z"
         style="font-family:'Permanent Marker';-inkscape-font-specification:'Permanent Marker';text-align:center;text-anchor:middle"
         id="path319" />
      <path
         d="m 30.473471,34.620026 q -0.752278,-0.181585 -1.167328,-0.596635 -0.389109,-0.44099 -0.596634,-1.011684 -0.181584,-0.596635 -0.259406,-1.297031 -0.05188,-0.700397 -0.129703,-1.452675 0.103762,-0.337229 0.259406,-0.570694 0.181584,-0.233466 0.155644,-0.648516 0.285346,-0.8301 0.518812,-1.608319 0.233466,-0.778218 0.311288,-1.608318 0.155643,-0.233466 0.311287,-0.311288 0.207525,-1.478615 0.05188,-3.035053 -0.155643,-1.556437 -0.518812,-2.879409 0.02594,-0.285347 0.07782,-0.41505 0.05188,-0.155644 0,-0.259407 -0.05188,-0.233465 0.155643,-0.233465 0.207525,0 0.41505,0 0,-0.466931 -0.181584,-0.907922 -0.155644,-0.466931 -0.311287,-1.063566 0.207525,-0.466931 0.285346,-0.907922 0.07782,-0.44099 0.285347,-0.804159 0.8301,0.259406 1.63426,0.596634 0.804159,0.337229 1.582378,0.674457 0.778219,0.311287 1.530497,0.622575 0.752278,0.285347 1.478615,0.466931 1.115447,0.804159 2.282775,1.608319 1.193269,0.778218 2.153072,1.738022 0.985744,0.933862 1.63426,2.153071 0.648515,1.21921 0.752278,2.87941 -0.05188,0.155644 -0.07782,0.259406 -0.02594,0.103763 -0.05188,0.207525 -0.02594,0.103763 -0.02594,0.233466 0,0.129703 0,0.363168 -0.933863,1.63426 -2.360597,2.749707 -1.426734,1.115447 -3.112875,1.971487 -1.686141,0.856041 -3.527925,1.582378 -1.815844,0.700397 -3.553866,1.504557 z m 2.542182,-14.708335 q -0.233466,0 -0.337228,0.103763 0.311287,1.167328 0.466931,2.204953 0.155644,1.037625 0.155644,2.07525 0.02594,1.037625 -0.103763,2.127131 -0.129703,1.089506 -0.363169,2.360597 0.337228,-0.02594 0.596635,-0.129703 0.259406,-0.103763 0.518812,-0.233466 0.285347,-0.129703 0.570694,-0.233465 0.311287,-0.103763 0.700397,-0.129704 0.103762,-0.207525 0.259406,-0.311287 0.181584,-0.129703 0.311288,-0.259406 0.648515,-0.259407 1.297031,-0.544753 0.648515,-0.285347 1.193269,-0.648516 0.544753,-0.363169 0.985743,-0.8301 0.440991,-0.466931 0.726338,-1.115447 -0.207525,-0.389109 -0.518813,-0.648516 -0.285347,-0.285346 -0.622575,-0.544753 -0.311287,-0.285347 -0.622575,-0.570693 -0.285347,-0.311288 -0.466931,-0.700397 -0.41505,-0.05188 -0.726337,-0.207525 -0.311288,-0.181585 -0.596635,-0.337228 -0.285347,-0.181585 -0.622575,-0.337229 -0.311287,-0.155643 -0.752278,-0.181584 -0.674456,-0.363169 -1.219209,-0.492872 -0.544753,-0.155644 -0.8301,-0.41505 z"
         style="font-family:'Permanent Marker';-inkscape-font-specification:'Permanent Marker';text-align:center;text-anchor:middle"
         id="path321" />
    </g>
  </g>
</svg>
